<svg width="32" height="32" viewBox="0 0 32 32" fill="none" xmlns="http://www.w3.org/2000/svg">
<path d="M16 2C13.4288 2 10.9154 2.76244 8.77759 4.1909C6.63975 5.61935 4.97351 7.64968 3.98957 10.0251C3.00563 12.4006 2.74819 15.0144 3.2498 17.5362C3.75141 20.0579 4.98953 22.3743 6.80762 24.1924C8.6257 26.0105 10.9421 27.2486 13.4638 27.7502C15.9856 28.2518 18.5995 27.9944 20.9749 27.0104C23.3503 26.0265 25.3807 24.3603 26.8091 22.2224C28.2376 20.0846 29 17.5712 29 15C28.9934 11.5542 27.6216 8.25145 25.1851 5.81491C22.7486 3.37837 19.4458 2.00661 16 2ZM22.1875 12.725L14.8625 19.725C14.6731 19.9031 14.4225 20.0016 14.1625 20C14.0354 20.0018 13.9093 19.9785 13.7913 19.9313C13.6733 19.8841 13.5658 19.814 13.475 19.725L9.81251 16.225C9.71092 16.1364 9.62831 16.0281 9.56963 15.9067C9.51095 15.7854 9.47741 15.6534 9.47104 15.5187C9.46467 15.3841 9.48559 15.2495 9.53255 15.1231C9.57951 14.9968 9.65154 14.8812 9.7443 14.7834C9.83706 14.6856 9.94865 14.6075 10.0723 14.5539C10.196 14.5003 10.3293 14.4723 10.4641 14.4715C10.5989 14.4707 10.7325 14.4972 10.8568 14.5493C10.9811 14.6015 11.0936 14.6783 11.1875 14.775L14.1625 17.6125L20.8125 11.275C21.0069 11.1054 21.2594 11.0174 21.5172 11.0296C21.7749 11.0418 22.018 11.1532 22.1955 11.3404C22.3731 11.5277 22.4714 11.7763 22.4699 12.0343C22.4684 12.2924 22.3672 12.5398 22.1875 12.725Z" fill="white"/>
</svg>
